<svg width="211" height="211" viewBox="0 0 211 211" fill="none" xmlns="http://www.w3.org/2000/svg">
<path d="M177.601 72.3678L139.036 33.8022C120.619 15.3851 90.7586 15.3851 72.3414 33.8022L33.7758 72.3678C15.3587 90.785 15.3587 120.645 33.7758 139.062L72.3414 177.628C90.7586 196.045 120.619 196.045 139.036 177.628L177.601 139.062C196.018 120.645 196.018 90.785 177.601 72.3678Z" fill="#292327"/>
<path d="M176.15 79.0499C176.15 80.7699 176.12 82.3999 176 84.0199C175.22 93.9799 165.67 103.93 156.95 104C145.22 104.09 133.47 103.55 121.77 104.18C109.84 104.83 103.32 97.7399 96.74 88.7699C75.69 88.7699 54.37 88.4799 33.06 88.9299C32.07 88.9499 31.11 89.0599 30.17 89.2299C25.02 100.9 25.61 114.49 31.94 125.72C34.99 113.76 44.75 108.26 57.9 108.77C66.95 109.12 76.0299 108.62 85.09 108.93C91.9399 109.16 97.9799 111.58 103.2 116.43C107.48 120.41 112.55 123.84 118.68 123.89C138.8 124.05 158.92 123.92 179.04 123.87C180.02 123.87 181.01 123.73 182 123.49C188.94 109.14 186.99 91.5799 176.14 79.0499H176.15Z" fill="#DD8243"/>
<path d="M178.92 128.81C162.48 128.81 146.32 128.76 130.16 128.83C121.34 128.87 112.51 129.14 104.61 123.63V185.37C111.98 185.69 119.42 184.01 126.06 180.35C126.2 179.61 126.29 178.86 126.29 178.1C126.31 172.5 126.26 166.9 126.32 161.31C126.41 152.18 130.71 148.12 139.87 148.45C146.3 148.43 152.72 148.41 159.15 148.39C159.62 148.39 160.06 148.34 160.46 148.23L174.14 134.55C175.94 132.75 177.52 130.82 178.92 128.8V128.81Z" fill="#7EBBCD"/>
<path d="M54.3501 114.61C44.4901 114.54 36.7101 117.95 36.4301 132.13C37.1401 132.96 37.8701 133.77 38.6501 134.55L54.3601 150.26V114.61H54.3501Z" fill="#7EBBCD"/>
<path d="M99.13 118.92C93.77 114.33 88.01 113.77 81.67 114.77C81.67 135.65 81.67 156.3 81.67 176.94C81.67 176.98 81.67 177.01 81.67 177.05C87.07 181.17 93.25 183.77 99.65 184.84C99.57 162.67 100.18 140.66 99.13 118.92Z" fill="#7EBBCD"/>
<path d="M76.89 113.97H59.2V155.11L76.86 172.77C76.92 162.43 76.89 152.09 76.89 141.76C76.89 132.5 76.89 123.25 76.89 113.97Z" fill="#7EBBCD"/>
<path d="M144.75 47.48L135.23 37.96C132.84 35.57 130.21 33.54 127.44 31.86V98.99H144.75V47.48Z" fill="#F7D57E"/>
<path d="M76.1 61.43C81.75 61.54 86.75 63.3699 91.36 66.93C97.31 71.52 98.05 78.5099 100.52 84.6999C104.16 93.7899 114.13 100.51 121.98 98.5699V29.1099C113.7 25.6899 104.53 25.1199 95.95 27.3899C96.04 29.8499 95.89 32.3499 95.72 34.8099C95.35 40.0799 92.73 43.1799 87.06 42.8799C83.59 42.8899 80.12 42.9099 76.65 42.9199C75.24 42.9999 73.83 43.0899 72.35 43.1799L54.12 61.41C61.94 61.41 69.03 61.31 76.1 61.45V61.43Z" fill="#F7D57E"/>
<path d="M33.13 83.7299H94.07C94.75 77.0099 90.3 70.2099 83.91 67.9699C72.04 63.8099 59.82 66.8399 49.5 66.0099L38.64 76.8699C36.51 78.9999 34.68 81.2999 33.12 83.7299H33.13Z" fill="#DD8243"/>
<path d="M150.11 99.12C158.3 99.73 164.92 97.38 168.93 90.42C171.9 85.26 171.84 79.72 171.44 74.16L150.12 52.84V99.12H150.11Z" fill="#F7D57E"/>
</svg>
